<svg id="Group_594" data-name="Group 594" xmlns="http://www.w3.org/2000/svg" xmlns:xlink="http://www.w3.org/1999/xlink" width="238.823" height="53.79" viewBox="0 0 238.823 53.79">
  <defs>
    <linearGradient id="linear-gradient" x1="1.84" y1="-1.393" x2="-0.387" y2="0.669" gradientUnits="objectBoundingBox">
      <stop offset="0" stop-color="#fc00ff"/>
      <stop offset="1" stop-color="#00dbde"/>
    </linearGradient>
    <linearGradient id="linear-gradient-2" x1="1.071" y1="0.137" x2="-0.754" y2="1.891" xlink:href="#linear-gradient"/>
    <linearGradient id="linear-gradient-3" x1="1.04" y1="-1.185" x2="-0.072" y2="2.902" xlink:href="#linear-gradient"/>
  </defs>
  <path id="Path_158" data-name="Path 158" d="M603.67,350.416c0-.05-.04-.05-.04-.05a19.7,19.7,0,0,0-10.382-2.924,19.986,19.986,0,0,0-19.819,17.393,15.58,15.58,0,0,0-.189,2.566V333.62h14.847C596.65,333.62,603.63,341.108,603.67,350.416Z" transform="translate(-573.24 -333.62)" fill="url(#linear-gradient)"/>
  <path id="Path_159" data-name="Path 159" d="M603.67,350.493c0-.05-.04-.05-.04-.05a19.7,19.7,0,0,0-10.382-2.924,19.986,19.986,0,0,0-19.819,17.393,15.582,15.582,0,0,0-.189,2.566v20.008h20.008a19.967,19.967,0,0,0,10.422-36.993Zm-2.327,25.13a11.466,11.466,0,0,1-19.581-8.145,12.665,12.665,0,0,1,.318-2.566,10.917,10.917,0,0,1,3.033-5.529,11.494,11.494,0,0,1,15.394-.746c.278.229.557.467.835.746A11.5,11.5,0,0,1,601.343,375.623Z" transform="translate(-573.24 -333.697)" fill="url(#linear-gradient-2)"/>
  <path id="Path_1727" data-name="Path 1727" d="M16.917-7.148H13.066L8.558,2.339,4.049-7.148H.128l6.5,12.938h3.8Zm3.851,7.3h12.4a2.52,2.52,0,0,0,.094-.845c0-4.579-3.147-6.974-7.843-6.974-5.1,0-8.148,2.677-8.148,7,0,4.3,3.076,6.974,8.406,6.974a10.228,10.228,0,0,0,7.115-2.3L30.842,1.869a7.237,7.237,0,0,1-4.978,1.667C22.858,3.537,21.1,2.48,20.768.155Zm4.673-5.049c2.3,0,3.781.822,4.344,2.677l-8.853.047C21.449-4,23.07-4.893,25.441-4.893Zm14,10.684V-1.982a5.043,5.043,0,0,1,4.579-2.747A2.934,2.934,0,0,1,47.3-1.465V5.791h3.64V-1.7c0-3.452-2-5.917-5.87-5.917A6.427,6.427,0,0,0,39.436-4.87V-7.148H35.8V5.791ZM65.642-7.148V.625a5.043,5.043,0,0,1-4.579,2.747A2.934,2.934,0,0,1,57.776.108V-7.148h-3.64V.343c0,3.452,2,5.917,5.87,5.917a6.427,6.427,0,0,0,5.636-2.747V5.791h3.64V-7.148Zm9.815,7.3h12.4A2.52,2.52,0,0,0,87.95-.69c0-4.579-3.147-6.974-7.843-6.974-5.1,0-8.148,2.677-8.148,7,0,4.3,3.076,6.974,8.406,6.974a10.228,10.228,0,0,0,7.115-2.3L85.531,1.869a7.237,7.237,0,0,1-4.978,1.667C77.547,3.537,75.786,2.48,75.458.155ZM80.13-4.893c2.3,0,3.781.822,4.344,2.677l-8.853.047C76.138-4,77.759-4.893,80.13-4.893ZM99.761-7.617a6.818,6.818,0,0,0-5.636,2.583v-6.551h-3.64V5.791h3.64V3.7a6.818,6.818,0,0,0,5.636,2.583,6.587,6.587,0,0,0,6.974-6.951A6.587,6.587,0,0,0,99.761-7.617ZM98.845,3.255a5.615,5.615,0,0,1-4.7-2.113V-2.475a5.615,5.615,0,0,1,4.7-2.113c2.818,0,4.415,1.385,4.415,3.921S101.663,3.255,98.845,3.255Zm17.987,3.053c5.1,0,8.266-2.677,8.266-6.974,0-4.321-3.17-6.974-8.266-6.974-5.119,0-8.266,2.653-8.266,6.974C108.567,3.631,111.713,6.307,116.832,6.307Zm0-2.959c-2.724,0-4.743-1.338-4.743-4.015,0-2.7,2.019-4.015,4.743-4.015,2.747,0,4.767,1.315,4.767,4.015C121.6,2.01,119.58,3.349,116.832,3.349ZM135.2,6.307c5.1,0,8.266-2.677,8.266-6.974,0-4.321-3.17-6.974-8.266-6.974-5.119,0-8.266,2.653-8.266,6.974C126.93,3.631,130.076,6.307,135.2,6.307Zm0-2.959c-2.724,0-4.743-1.338-4.743-4.015,0-2.7,2.019-4.015,4.743-4.015,2.747,0,4.767,1.315,4.767,4.015C139.962,2.01,137.942,3.349,135.2,3.349Zm22.19,2.442H161.4l-6.035-7.8,5.683-5.143h-4.3L149.777-.854V-11.586h-3.64V5.791h3.64V2.574L152.83-.009Zm7.185.282a2.015,2.015,0,0,0,2.207-1.949,2.234,2.234,0,0,0-4.438,0A2.023,2.023,0,0,0,164.571,6.073ZM171.521-8.7a1.943,1.943,0,0,0,2.16-1.832,1.932,1.932,0,0,0-2.16-1.855,1.962,1.962,0,0,0-2.207,1.855A1.973,1.973,0,0,0,171.521-8.7Zm1.855,1.55h-3.64V5.791h3.64Zm7.115,12.938V-1.982a5.043,5.043,0,0,1,4.579-2.747,2.934,2.934,0,0,1,3.287,3.264V5.791H192V-1.7c0-3.452-2-5.917-5.87-5.917a6.427,6.427,0,0,0-5.636,2.747V-7.148h-3.64V5.791Z" transform="translate(46.825 26.207)" fill="#110f2a"/>
  <path id="Path_1728" data-name="Path 1728" d="M2.24,3.981V-5.986h-1.2V3.981ZM10.128,2.7a3.188,3.188,0,0,1-1.637.527c-.854,0-1.58-.427-1.58-1.381v-4.6h3.574V-3.779H6.91V-5.587H5.743v1.808H4.176v1.025H5.743v4.77a2.26,2.26,0,0,0,2.549,2.25,3.925,3.925,0,0,0,2.25-.726Zm2.534-8.97a.8.8,0,0,0-.84.783.779.779,0,0,0,.8.8.361.361,0,0,0,.228-.057,2.909,2.909,0,0,1-.854,1.58l.384.327a3.81,3.81,0,0,0,1.168-2.52A.852.852,0,0,0,12.663-6.27ZM19.4-.518C17.7-.646,16.308-.831,16.308-1.8c0-1.039,1.609-1.324,2.791-1.31A4.832,4.832,0,0,1,22.3-1.97l.74-.783a6.442,6.442,0,0,0-3.887-1.324c-2.292,0-4,.826-4,2.349,0,1.595,1.951,2.036,4,2.207,1.979.171,3.132.427,3.132,1.4,0,.94-1.267,1.438-2.876,1.438a5.61,5.61,0,0,1-3.816-1.4l-.74.7A6.736,6.736,0,0,0,19.383,4.28c2.648,0,4.058-1.125,4.058-2.52C23.441.251,21.733-.333,19.4-.518Zm14.4,0C32.1-.646,30.7-.831,30.7-1.8c0-1.039,1.609-1.324,2.791-1.31A4.832,4.832,0,0,1,36.7-1.97l.74-.783A6.442,6.442,0,0,0,33.55-4.078c-2.292,0-4,.826-4,2.349,0,1.595,1.951,2.036,4,2.207,1.979.171,3.132.427,3.132,1.4,0,.94-1.267,1.438-2.876,1.438a5.61,5.61,0,0,1-3.816-1.4l-.74.7A6.736,6.736,0,0,0,33.778,4.28c2.648,0,4.058-1.125,4.058-2.52C37.836.251,36.128-.333,33.793-.518ZM40.5-4.975a.787.787,0,0,0,.826-.755.778.778,0,0,0-.826-.755.778.778,0,0,0-.826.755A.787.787,0,0,0,40.5-4.975Zm.584,1.2H39.915v7.76h1.168Zm14.281-.285a3.87,3.87,0,0,0-3.645,2.235,2.97,2.97,0,0,0-3.161-2.235A3.832,3.832,0,0,0,45.112-2.17V-3.779H43.945v7.76h1.168v-4.9a3.3,3.3,0,0,1,3.147-2.107c1.737,0,2.492,1.039,2.492,2.677V3.981h1.168L51.9,3.027V-.433c0-.142,0-.3-.014-.441a3.345,3.345,0,0,1,3.175-2.15c1.737,0,2.492,1.039,2.492,2.677V3.981H58.71V-.433C58.71-2.455,57.742-4.063,55.364-4.063Zm11.049,8.33A3.928,3.928,0,0,0,70.627.094a3.917,3.917,0,0,0-4.215-4.158,4.319,4.319,0,0,0-3.745,1.78v-1.5H61.5V6.829h1.168V2.486A4.319,4.319,0,0,0,66.413,4.266Zm-.3-7.29c2.136,0,3.332,1.125,3.332,3.118s-1.2,3.132-3.332,3.132a3.676,3.676,0,0,1-3.446-1.894V-1.13A3.676,3.676,0,0,1,66.114-3.024Zm7.959,7.005V-6.555H72.906V3.981Zm3.488-8.956a.787.787,0,0,0,.826-.755.778.778,0,0,0-.826-.755.778.778,0,0,0-.826.755A.787.787,0,0,0,77.562-4.975Zm.584,1.2H76.978v7.76h1.168ZM84.14-5.943a2.492,2.492,0,0,1,1.58.555l.555-.74a3.809,3.809,0,0,0-2.25-.712,2.326,2.326,0,0,0-2.577,2.421v.641H79.882v1h1.566V3.981h1.168V-2.782h3.56v-1h-3.56V-4.6C82.616-5.587,83.285-5.943,84.14-5.943Zm4.314-.541a.778.778,0,0,0-.826.755.787.787,0,0,0,.826.755.787.787,0,0,0,.826-.755A.778.778,0,0,0,88.454-6.484ZM87.87,3.981h1.168v-7.76H87.87ZM92.5.35h7.974A.971.971,0,0,0,100.5.094c0-2.677-1.766-4.172-4.528-4.172-2.933,0-4.656,1.623-4.656,4.186S93.039,4.28,96.043,4.28a5.823,5.823,0,0,0,4.186-1.41l-.769-.812A4.4,4.4,0,0,1,96.1,3.284C94.036,3.284,92.612,2.315,92.5.35Zm3.488-3.431A3.041,3.041,0,0,1,99.318-.618H92.555C92.854-2.255,94.192-3.081,95.986-3.081Zm10.294-.982A3.928,3.928,0,0,0,102.066.108a3.917,3.917,0,0,0,4.215,4.158,4.319,4.319,0,0,0,3.745-1.78v1.5h1.168V-6.555h-1.168v4.272A4.319,4.319,0,0,0,106.281-4.063Zm.3,7.29c-2.136,0-3.332-1.125-3.332-3.118s1.2-3.132,3.332-3.132a3.676,3.676,0,0,1,3.446,1.894V1.333A3.676,3.676,0,0,1,106.58,3.227Z" transform="translate(47.358 46.961)" fill="#110f2a"/>
  <path id="Union_5" data-name="Union 5" d="M28.477,9.493,33.223,0h6.329L34.8,9.493Zm-9.493,0L23.731,0h6.328L25.313,9.493Zm-9.491,0L14.238,0h6.328L15.82,9.493ZM0,9.493,4.746,0h6.329L6.328,9.493Z" transform="translate(164.274 41.45)" fill="url(#linear-gradient-3)"/>
</svg>
